<svg xmlns="http://www.w3.org/2000/svg" viewBox="0 0 946 1122" width="946" height="1122">
<path fill="#107A30" fill-rule="evenodd" d="M 517 1060 L 557 1102 L 562 1085 L 554 1066 L 536 1057 Z M 416 1063 L 459 1101 L 464 1084 L 453 1063 L 438 1057 Z M 612 1033 L 651 1072 L 655 1070 L 656 1049 L 644 1033 L 632 1029 Z M 314 1031 L 312 1035 L 353 1074 L 357 1051 L 351 1038 L 333 1029 Z M 211 999 L 208 1003 L 251 1042 L 256 1033 L 253 1009 L 234 996 Z M 705 999 L 746 1041 L 750 1038 L 753 1019 L 744 1000 L 720 993 Z M 557 703 L 521 705 L 540 707 Z M 733 683 L 731 686 L 774 727 L 780 717 L 775 691 L 757 679 Z M 198 680 L 199 686 L 238 721 L 242 707 L 238 691 L 218 677 Z M 606 653 L 618 667 L 620 658 L 615 653 Z M 563 632 L 562 637 L 575 646 L 575 636 Z M 665 626 L 669 633 L 679 637 L 678 627 Z M 626 624 L 636 635 L 641 634 L 636 623 Z M 803 609 L 844 651 L 848 649 L 852 626 L 844 613 L 829 605 Z M 707 606 L 720 620 L 720 609 Z M 592 605 L 604 619 L 604 607 Z M 131 609 L 170 652 L 177 648 L 178 627 L 168 611 L 157 605 Z M 499 607 L 507 616 L 514 617 L 510 606 Z M 553 597 L 567 607 L 565 596 Z M 747 574 L 747 580 L 758 588 L 759 579 Z M 524 570 L 538 582 L 534 569 Z M 478 558 L 487 570 L 491 568 L 486 558 Z M 771 544 L 776 551 L 786 554 L 782 543 Z M 501 528 L 512 541 L 514 533 Z M 860 524 L 859 528 L 900 566 L 900 534 L 881 521 Z M 84 523 L 82 526 L 123 564 L 127 545 L 122 532 L 109 521 Z M 796 511 L 795 515 L 805 522 L 806 513 Z M 794 466 L 793 470 L 804 477 L 804 470 Z M 772 428 L 782 440 L 786 439 L 785 431 Z M 882 426 L 881 431 L 920 466 L 924 446 L 919 434 L 901 423 Z M 60 425 L 59 432 L 97 468 L 103 456 L 99 434 L 81 422 Z M 810 413 L 810 418 L 820 426 L 820 415 Z M 755 395 L 769 406 L 765 394 Z M 720 365 L 721 371 L 732 379 L 732 369 Z M 776 350 L 787 364 L 787 353 Z M 688 338 L 687 343 L 699 353 L 700 343 Z M 645 332 L 645 339 L 655 345 L 655 337 Z M 880 323 L 920 363 L 924 342 L 919 330 L 903 319 Z M 58 323 L 56 326 L 96 363 L 102 351 L 96 329 L 80 319 Z M 719 305 L 732 317 L 730 306 Z M 652 297 L 662 308 L 667 305 L 661 297 Z M 859 228 L 858 232 L 895 268 L 900 246 L 893 235 L 879 226 Z M 82 224 L 80 228 L 119 264 L 124 241 L 117 228 L 102 221 Z M 814 141 L 852 177 L 855 157 L 849 146 L 830 136 Z M 131 135 L 127 140 L 166 175 L 171 164 L 169 145 L 148 131 Z M 749 54 L 747 59 L 785 93 L 785 65 L 770 53 Z M 203 56 L 202 61 L 236 92 L 241 81 L 237 63 L 221 52 Z M 538 42 L 462 45 L 404 60 L 341 89 L 286 129 L 245 173 L 206 241 L 187 297 L 177 374 L 182 437 L 201 502 L 225 548 L 264 599 L 319 648 L 387 684 L 434 699 L 506 707 L 510 711 L 515 704 L 433 690 L 386 668 L 337 637 L 285 589 L 251 543 L 222 482 L 211 443 L 205 367 L 218 292 L 248 220 L 295 156 L 357 104 L 430 69 L 509 52 L 593 55 L 662 75 L 612 54 Z M 470 5 L 395 17 L 333 40 L 264 83 L 211 134 L 172 184 L 137 260 L 117 345 L 114 411 L 123 469 L 144 533 L 176 592 L 221 648 L 285 697 L 313 713 L 322 713 L 327 721 L 369 737 L 416 746 L 412 742 L 424 735 L 433 741 L 429 748 L 451 739 L 472 748 L 469 745 L 474 736 L 482 740 L 490 735 L 489 744 L 484 746 L 511 753 L 521 748 L 537 750 L 544 745 L 538 738 L 556 747 L 597 738 L 661 712 L 731 664 L 769 627 L 810 569 L 839 504 L 853 440 L 855 360 L 847 325 L 849 382 L 843 440 L 833 480 L 827 488 L 820 482 L 813 484 L 825 491 L 827 497 L 800 557 L 769 600 L 734 638 L 701 665 L 643 698 L 580 722 L 536 726 L 461 725 L 408 713 L 402 718 L 395 716 L 393 708 L 332 683 L 271 640 L 236 605 L 188 535 L 163 467 L 154 410 L 154 350 L 169 278 L 200 206 L 246 142 L 301 92 L 360 57 L 430 33 L 495 23 L 565 26 L 632 43 L 690 72 L 735 105 L 735 99 L 693 66 L 622 28 L 541 7 Z "/>
<path fill="#003F95" fill-rule="evenodd" d="M 343 975 L 188 985 L 50 1007 L 137 978 L 67 997 L 27 1015 L 191 985 Z M 915 1011 L 842 985 L 781 972 L 890 1003 L 813 990 L 695 978 L 589 974 L 746 983 Z M 294 799 L 247 925 L 275 925 L 286 904 L 325 904 L 336 925 L 363 926 L 364 918 L 316 800 Z M 305 847 L 316 869 L 317 886 L 292 884 Z M 137 799 L 136 924 L 164 924 L 166 876 L 209 875 L 213 880 L 214 926 L 240 927 L 240 800 L 214 799 L 213 848 L 209 853 L 168 853 L 164 846 L 164 801 Z M 109 808 L 82 798 L 28 801 L 30 926 L 54 925 L 59 891 L 92 890 L 116 878 L 124 868 L 128 840 L 122 822 Z M 58 822 L 82 821 L 94 830 L 98 850 L 86 866 L 56 866 Z M 733 826 L 724 846 L 723 878 L 736 904 L 754 920 L 791 930 L 812 924 L 830 912 L 816 890 L 794 902 L 767 895 L 755 877 L 754 855 L 761 839 L 777 826 L 796 824 L 821 837 L 834 817 L 869 884 L 869 925 L 900 926 L 897 888 L 942 801 L 912 800 L 884 851 L 856 799 L 830 799 L 832 816 L 809 801 L 782 797 L 752 807 Z M 727 922 L 678 799 L 667 797 L 666 801 L 663 797 L 658 803 L 610 922 L 606 913 L 601 799 L 575 802 L 541 870 L 511 806 L 504 799 L 482 799 L 479 803 L 482 811 L 475 925 L 502 925 L 506 861 L 520 889 L 524 888 L 521 891 L 533 914 L 542 922 L 576 861 L 580 922 L 584 925 L 639 924 L 650 904 L 688 905 L 700 926 L 718 927 Z M 669 846 L 682 884 L 658 886 Z M 369 800 L 368 922 L 397 924 L 398 889 L 411 884 L 434 923 L 466 925 L 468 920 L 444 882 L 467 856 L 468 834 L 461 817 L 449 807 L 422 797 Z M 401 823 L 424 821 L 436 830 L 439 847 L 432 859 L 421 863 L 399 860 Z M 401 554 L 396 549 L 383 558 Z M 613 532 L 617 539 L 617 585 L 629 602 L 662 608 L 680 605 L 691 597 L 699 577 L 702 531 L 698 536 L 695 589 L 681 604 L 665 607 L 642 606 L 622 594 L 617 572 L 618 535 Z M 436 505 L 438 515 L 442 509 Z M 285 498 L 281 507 L 287 510 Z M 514 473 L 507 474 L 507 481 L 513 483 L 511 489 L 506 491 L 506 485 L 500 485 L 487 498 L 495 513 L 519 478 Z M 528 383 L 533 388 L 539 384 L 535 379 Z M 534 474 L 535 512 L 545 524 L 561 532 L 593 532 L 555 528 L 540 517 L 533 498 L 540 462 L 557 452 L 615 451 L 618 403 L 624 384 L 644 375 L 675 375 L 696 391 L 700 450 L 756 454 L 772 471 L 774 494 L 769 515 L 763 522 L 739 532 L 763 523 L 770 516 L 774 498 L 773 471 L 765 459 L 747 451 L 700 448 L 699 398 L 693 385 L 677 375 L 640 375 L 623 385 L 617 402 L 618 443 L 614 450 L 554 452 L 539 462 Z M 479 344 L 473 341 L 468 346 L 474 348 Z M 411 308 L 417 315 L 426 312 L 416 305 Z M 646 293 L 633 290 L 621 305 L 625 308 L 618 309 L 612 326 L 608 326 L 611 330 L 600 336 L 600 344 L 606 345 L 597 357 L 592 349 L 589 358 L 578 367 L 578 382 L 565 386 L 578 384 L 580 388 L 553 421 L 547 435 L 543 436 L 542 431 L 537 434 L 542 440 L 521 470 L 521 476 Z M 594 355 L 598 359 L 588 374 L 585 367 L 594 361 L 590 358 Z M 669 232 L 659 232 L 656 247 L 661 248 Z M 674 227 L 671 245 L 658 271 L 645 270 L 643 275 L 652 278 L 652 282 L 670 250 Z M 487 210 L 481 218 L 490 225 L 495 216 Z M 496 195 L 495 203 L 502 206 L 504 200 Z M 665 177 L 667 192 L 657 198 L 660 212 L 664 205 L 673 204 Z M 525 168 L 515 175 L 520 180 L 530 174 Z M 580 127 L 580 132 L 591 133 L 591 127 Z M 539 126 L 545 132 L 560 131 L 545 124 Z M 629 136 L 592 120 L 539 120 L 495 141 L 466 173 L 288 437 L 277 462 L 272 496 L 275 519 L 291 553 L 317 578 L 338 589 L 363 595 L 412 590 L 435 581 L 455 566 L 493 516 L 486 509 L 480 512 L 482 528 L 477 533 L 469 528 L 466 531 L 466 541 L 453 547 L 457 558 L 442 560 L 441 567 L 434 570 L 442 571 L 433 579 L 416 576 L 380 594 L 365 594 L 366 588 L 375 583 L 362 583 L 357 591 L 343 590 L 310 569 L 320 565 L 308 554 L 302 562 L 294 556 L 291 547 L 297 537 L 290 534 L 286 538 L 282 534 L 274 502 L 276 474 L 279 470 L 286 473 L 283 463 L 280 464 L 285 445 L 291 462 L 299 448 L 299 440 L 296 444 L 293 437 L 318 395 L 331 382 L 342 379 L 334 371 L 399 277 L 416 274 L 417 249 L 421 248 L 420 254 L 423 249 L 433 249 L 425 239 L 428 234 L 435 236 L 433 241 L 442 236 L 445 230 L 437 221 L 441 216 L 452 220 L 456 215 L 454 202 L 463 203 L 475 187 L 477 173 L 473 169 L 478 159 L 493 144 L 534 122 L 555 118 L 568 126 L 577 120 L 612 126 L 633 144 L 627 142 L 622 147 L 630 154 L 642 151 L 650 156 L 643 169 L 651 182 L 661 173 L 664 175 L 652 156 Z "/>
<path fill="#01469C" fill-rule="evenodd" d="M 51 1007 L 188 984 L 308 974 L 431 970 L 642 973 L 813 989 L 889 1003 L 779 972 L 703 963 L 692 958 L 577 948 L 463 946 L 356 949 L 219 963 L 156 978 L 138 978 Z M 520 400 L 514 396 L 505 398 L 402 541 L 378 553 L 355 554 L 388 561 L 404 557 L 426 543 L 520 408 Z M 402 554 L 382 558 L 396 548 Z M 436 504 L 443 509 L 438 516 L 433 509 Z M 444 494 L 451 498 L 448 506 Z M 644 376 L 625 384 L 622 390 L 618 449 L 612 453 L 551 455 L 538 468 L 534 498 L 539 514 L 552 526 L 594 532 L 616 530 L 621 591 L 642 605 L 665 606 L 681 603 L 694 589 L 697 536 L 701 530 L 724 528 L 738 532 L 766 518 L 772 501 L 772 477 L 765 461 L 756 455 L 700 451 L 698 405 L 693 388 L 675 376 Z M 594 356 L 591 358 L 595 361 L 586 367 L 588 373 L 597 359 Z M 445 265 L 442 278 L 449 283 L 458 280 L 458 267 Z M 662 174 L 657 181 L 649 181 L 657 206 L 657 195 L 666 192 Z M 591 157 L 552 155 L 520 168 L 493 196 L 471 230 L 473 238 L 481 239 L 494 221 L 490 226 L 484 224 L 481 214 L 489 209 L 495 219 L 517 187 L 538 169 L 572 159 L 566 157 L 568 154 L 576 154 L 575 158 Z M 473 228 L 481 236 L 479 239 L 471 233 Z M 496 194 L 505 200 L 502 207 L 492 199 Z M 525 167 L 531 174 L 520 181 L 514 175 Z M 614 128 L 587 121 L 566 127 L 552 119 L 534 123 L 493 145 L 474 169 L 478 173 L 476 187 L 463 204 L 455 202 L 455 218 L 439 219 L 437 224 L 446 230 L 439 240 L 432 234 L 427 237 L 434 249 L 430 253 L 423 250 L 420 255 L 418 249 L 417 274 L 400 277 L 334 375 L 343 379 L 335 385 L 331 383 L 319 395 L 295 434 L 300 448 L 291 463 L 286 445 L 281 464 L 284 463 L 287 473 L 279 471 L 275 483 L 276 516 L 286 537 L 290 533 L 298 537 L 292 547 L 297 558 L 302 561 L 309 553 L 321 565 L 311 569 L 317 576 L 343 589 L 357 590 L 362 582 L 375 582 L 365 593 L 380 593 L 416 575 L 429 580 L 441 570 L 433 570 L 440 567 L 442 559 L 456 558 L 452 547 L 457 541 L 465 541 L 465 531 L 469 527 L 474 532 L 481 528 L 479 512 L 486 508 L 491 516 L 494 514 L 486 502 L 492 490 L 500 484 L 506 484 L 506 490 L 512 487 L 506 481 L 509 471 L 520 477 L 520 470 L 541 440 L 536 434 L 542 430 L 546 435 L 552 421 L 579 388 L 572 385 L 565 390 L 564 386 L 570 381 L 577 382 L 577 367 L 594 348 L 597 356 L 605 345 L 599 344 L 599 336 L 603 330 L 610 330 L 610 320 L 620 306 L 624 308 L 620 305 L 633 289 L 647 292 L 652 279 L 643 274 L 648 267 L 656 272 L 670 245 L 675 221 L 674 206 L 670 203 L 660 213 L 658 208 L 658 234 L 651 255 L 558 391 L 406 295 L 481 179 L 516 145 L 549 133 L 586 134 L 578 130 L 589 125 L 593 128 L 589 135 L 619 147 L 644 172 L 642 165 L 651 158 L 642 152 L 632 156 L 623 150 L 623 143 L 632 143 Z M 285 497 L 287 511 L 280 507 Z M 535 441 L 537 445 L 531 451 L 527 447 Z M 549 413 L 551 417 L 545 423 L 542 418 Z M 330 394 L 332 399 L 326 405 Z M 558 392 L 551 399 L 545 396 L 552 390 Z M 527 383 L 533 378 L 540 382 L 535 389 Z M 505 370 L 509 362 L 517 367 L 510 372 Z M 492 351 L 495 354 L 487 359 L 485 356 Z M 467 346 L 473 340 L 480 344 L 474 349 Z M 401 306 L 539 393 L 549 405 L 461 533 L 437 560 L 402 578 L 360 580 L 329 568 L 303 543 L 290 514 L 289 480 L 307 438 L 394 310 Z M 410 308 L 416 304 L 427 312 L 417 316 Z M 662 229 L 669 236 L 661 249 L 655 244 Z M 488 156 L 492 163 L 485 167 L 482 160 Z M 616 135 L 611 141 L 604 138 L 611 133 Z M 538 126 L 545 123 L 561 131 L 545 133 Z "/>
<path fill="#07652C" fill-rule="evenodd" d="M 515 1059 L 501 1081 L 502 1096 L 512 1110 L 537 1116 L 557 1105 L 562 1099 L 553 1104 L 512 1063 Z M 420 1058 L 407 1069 L 403 1081 L 408 1104 L 428 1116 L 440 1116 L 458 1106 L 466 1090 L 462 1102 L 455 1105 L 413 1066 Z M 618 1027 L 624 1027 L 612 1030 L 602 1039 L 596 1054 L 597 1068 L 611 1085 L 633 1088 L 657 1071 L 649 1075 L 609 1036 Z M 312 1029 L 294 1057 L 299 1073 L 310 1084 L 324 1089 L 345 1084 L 356 1073 L 349 1077 L 308 1033 L 320 1027 L 334 1027 L 349 1034 L 335 1027 Z M 221 993 L 203 1003 L 195 1029 L 206 1049 L 218 1055 L 232 1055 L 249 1047 L 255 1039 L 247 1045 L 205 1003 L 217 994 L 234 994 L 253 1006 L 239 995 Z M 718 991 L 732 992 L 748 1001 L 733 992 L 712 993 L 695 1009 L 692 1026 L 704 1048 L 727 1054 L 749 1043 L 756 1031 L 756 1017 L 749 1003 L 756 1030 L 744 1044 L 702 1003 L 703 998 Z M 730 683 L 719 700 L 721 727 L 748 741 L 774 731 L 780 721 L 774 730 L 728 689 Z M 199 677 L 183 693 L 184 721 L 203 736 L 220 736 L 236 726 L 241 717 L 234 725 L 193 684 Z M 668 675 L 599 701 L 514 711 L 566 708 L 600 701 Z M 604 652 L 600 667 L 607 673 L 621 667 L 615 670 L 603 663 Z M 723 637 L 662 673 L 606 691 L 640 682 L 693 659 L 679 669 Z M 563 630 L 556 637 L 556 647 L 571 652 L 578 643 L 573 650 L 560 643 L 558 634 Z M 661 626 L 659 642 L 669 647 L 677 645 L 680 627 L 675 624 L 681 629 L 681 639 L 676 642 L 661 632 L 665 624 L 673 623 Z M 621 626 L 621 636 L 627 641 L 642 636 L 635 639 L 622 629 L 625 622 Z M 123 613 L 117 624 L 116 641 L 128 660 L 151 666 L 161 664 L 177 651 L 169 655 L 126 613 L 131 607 Z M 800 609 L 789 627 L 790 646 L 797 658 L 821 667 L 849 652 L 853 641 L 844 655 L 799 613 L 806 606 Z M 492 616 L 498 625 L 515 620 L 516 617 L 512 622 L 500 621 L 495 611 L 499 604 Z M 709 603 L 700 614 L 702 622 L 712 626 L 723 617 L 719 623 L 708 619 L 703 607 L 710 603 L 720 606 Z M 592 603 L 603 604 L 590 604 L 585 617 L 591 624 L 600 625 L 608 617 L 607 609 L 607 619 L 600 622 L 587 610 Z M 555 593 L 566 595 L 551 595 L 548 609 L 561 615 L 568 610 L 570 601 L 568 597 L 570 606 L 566 611 L 550 601 Z M 801 587 L 772 627 L 733 666 L 664 713 L 610 737 L 566 749 L 510 757 L 467 757 L 511 757 L 577 747 L 627 731 L 665 713 L 733 666 L 772 627 Z M 746 572 L 739 577 L 738 585 L 752 594 L 762 585 L 753 592 L 741 579 Z M 525 567 L 518 582 L 530 589 L 540 583 L 541 576 L 533 567 L 541 580 L 536 586 L 530 585 L 521 574 Z M 477 556 L 470 562 L 471 570 L 483 577 L 491 572 L 493 562 L 486 556 L 493 568 L 485 573 L 474 562 Z M 765 547 L 766 557 L 771 561 L 788 556 L 788 548 L 784 559 L 767 556 L 768 544 L 775 540 Z M 502 525 L 495 529 L 493 540 L 507 549 L 515 542 L 516 533 Z M 500 526 L 514 530 L 516 540 L 512 544 L 498 534 Z M 82 522 L 68 540 L 70 563 L 89 578 L 114 574 L 125 564 L 120 568 L 79 528 Z M 864 520 L 848 534 L 842 552 L 854 574 L 880 580 L 903 565 L 897 568 L 856 530 Z M 794 464 L 798 464 L 790 466 L 785 477 L 798 485 L 806 479 L 804 467 L 806 478 L 801 481 L 790 472 Z M 880 425 L 866 445 L 870 470 L 891 481 L 911 476 L 921 468 L 916 469 L 877 432 Z M 768 428 L 767 444 L 777 447 L 787 443 L 788 432 L 784 428 L 788 432 L 785 444 L 767 433 L 771 426 L 778 425 Z M 58 424 L 45 441 L 49 468 L 69 480 L 97 472 L 101 467 L 95 471 L 54 430 Z M 802 416 L 804 430 L 814 432 L 822 428 L 823 424 L 815 429 L 804 419 L 807 412 Z M 751 394 L 748 400 L 752 411 L 760 414 L 770 410 L 771 406 L 765 410 L 751 398 L 756 391 L 765 392 Z M 718 363 L 727 363 L 718 363 L 709 375 L 712 384 L 723 389 L 734 383 L 736 372 L 734 369 L 736 378 L 730 383 L 715 369 Z M 770 353 L 769 363 L 775 369 L 790 365 L 783 366 L 771 355 L 776 348 Z M 686 337 L 678 345 L 678 352 L 690 361 L 701 355 L 703 345 L 702 353 L 695 356 L 683 344 Z M 644 330 L 637 344 L 640 350 L 649 352 L 658 345 L 658 338 L 652 331 Z M 644 330 L 657 336 L 655 348 L 648 347 L 640 338 Z M 52 327 L 45 340 L 46 359 L 52 368 L 64 375 L 78 376 L 97 365 L 91 366 Z M 882 320 L 865 343 L 867 358 L 884 375 L 906 375 L 922 363 L 913 364 L 877 328 Z M 717 304 L 715 320 L 731 321 L 734 317 L 730 321 L 716 310 L 720 303 Z M 651 295 L 659 294 L 667 302 L 661 295 L 653 294 L 646 301 L 647 311 L 663 314 L 667 308 L 660 312 L 650 302 Z M 835 269 L 846 359 L 840 289 L 856 357 Z M 861 225 L 845 241 L 845 269 L 864 281 L 882 280 L 897 269 L 891 270 L 854 232 Z M 79 224 L 69 239 L 71 264 L 90 277 L 116 270 L 124 261 L 116 268 L 77 230 Z M 813 139 L 802 151 L 799 171 L 803 179 L 821 191 L 833 191 L 851 181 L 855 175 L 847 180 L 811 145 Z M 128 135 L 115 159 L 122 180 L 147 188 L 166 179 L 137 157 L 124 141 Z M 755 131 L 790 175 L 812 214 L 797 179 L 775 144 L 792 177 Z M 662 78 L 733 120 L 671 77 L 705 99 Z M 739 62 L 734 84 L 740 98 L 755 105 L 769 105 L 786 95 L 782 97 L 744 60 L 745 56 Z M 200 56 L 189 72 L 191 95 L 207 105 L 229 102 L 236 96 L 198 61 Z "/>
<path fill="#FCFCFC" fill-rule="evenodd" d="M 577 139 L 540 142 L 507 160 L 488 181 L 414 291 L 556 383 L 640 260 L 652 226 L 649 197 L 633 168 L 611 150 Z M 445 257 L 459 259 L 467 270 L 464 283 L 453 290 L 441 287 L 434 277 L 436 265 Z M 632 179 L 629 183 L 605 169 L 587 165 L 552 170 L 521 193 L 486 244 L 473 246 L 464 236 L 465 226 L 497 180 L 536 152 L 557 147 L 592 150 L 618 163 Z "/>
<path fill="#4899E8" fill-rule="evenodd" d="M 401 311 L 306 448 L 294 479 L 294 510 L 306 539 L 327 561 L 358 575 L 403 573 L 438 553 L 544 404 Z M 525 399 L 520 417 L 426 549 L 404 562 L 385 566 L 356 561 L 341 550 L 342 546 L 374 549 L 398 538 L 502 394 L 514 391 Z M 412 326 L 416 330 L 414 338 L 327 469 L 322 508 L 336 541 L 333 543 L 319 530 L 310 513 L 307 490 L 312 465 L 395 338 L 405 327 Z "/>
<path fill="#0D702D" fill-rule="evenodd" d="M 514 1061 L 553 1103 L 559 1102 L 562 1077 L 552 1062 L 537 1056 Z M 536 1056 L 555 1066 L 563 1085 L 557 1103 L 514 1062 Z M 414 1063 L 455 1104 L 461 1102 L 466 1089 L 456 1064 L 439 1056 L 424 1057 Z M 415 1063 L 429 1056 L 453 1062 L 465 1084 L 460 1101 L 456 1102 Z M 310 1032 L 311 1038 L 349 1076 L 355 1074 L 358 1051 L 350 1035 L 334 1028 Z M 314 1030 L 333 1028 L 352 1038 L 358 1051 L 353 1075 L 311 1035 Z M 610 1033 L 649 1074 L 655 1073 L 658 1050 L 645 1032 L 625 1027 Z M 611 1033 L 620 1028 L 644 1032 L 657 1049 L 656 1070 L 651 1073 Z M 207 1001 L 206 1005 L 247 1044 L 252 1043 L 257 1034 L 252 1006 L 234 995 L 217 995 Z M 211 998 L 234 995 L 254 1009 L 257 1033 L 251 1043 L 207 1003 Z M 703 999 L 744 1043 L 751 1039 L 755 1019 L 746 1000 L 728 992 Z M 705 998 L 720 992 L 744 999 L 754 1019 L 751 1038 L 746 1042 L 704 1002 Z M 731 683 L 729 689 L 774 729 L 782 713 L 774 688 L 750 677 Z M 733 682 L 757 678 L 776 691 L 781 717 L 774 728 L 730 686 Z M 197 679 L 194 684 L 236 724 L 243 708 L 237 688 L 218 676 Z M 198 679 L 218 676 L 239 691 L 243 707 L 238 722 L 198 686 Z M 603 654 L 604 663 L 620 668 L 618 654 Z M 606 652 L 615 652 L 621 658 L 618 668 L 605 657 Z M 561 632 L 560 642 L 575 648 L 576 635 L 567 630 Z M 563 631 L 576 636 L 575 647 L 561 637 Z M 665 625 L 662 632 L 678 641 L 679 627 Z M 664 626 L 678 626 L 680 637 L 669 634 Z M 624 624 L 625 632 L 635 638 L 641 636 L 638 623 L 630 620 Z M 625 624 L 636 622 L 642 634 L 636 636 Z M 706 605 L 707 617 L 719 622 L 723 616 L 720 607 Z M 707 605 L 721 609 L 720 621 L 706 610 Z M 590 605 L 588 610 L 604 621 L 605 606 Z M 592 604 L 605 607 L 604 620 L 590 608 Z M 496 609 L 500 620 L 512 621 L 516 616 L 514 608 L 506 604 L 516 612 L 510 619 L 499 609 L 504 604 Z M 800 611 L 841 652 L 847 653 L 854 633 L 853 624 L 843 611 L 824 603 Z M 802 609 L 812 604 L 829 604 L 844 612 L 853 626 L 849 649 L 844 652 Z M 129 609 L 127 613 L 169 654 L 178 649 L 179 626 L 170 611 L 152 603 Z M 131 608 L 157 604 L 168 610 L 178 623 L 178 648 L 170 653 L 129 612 Z M 553 595 L 551 601 L 566 610 L 567 596 Z M 552 597 L 565 595 L 568 607 L 559 605 Z M 742 577 L 753 591 L 760 588 L 756 574 L 749 572 Z M 747 573 L 760 579 L 758 589 L 746 580 Z M 525 568 L 522 574 L 530 584 L 538 584 L 537 571 Z M 524 569 L 534 568 L 539 582 L 535 584 L 523 573 Z M 477 557 L 475 562 L 489 572 L 492 563 L 485 556 Z M 478 557 L 486 557 L 492 568 L 487 571 L 476 560 Z M 769 544 L 769 557 L 787 556 L 784 543 L 780 541 L 787 548 L 785 556 L 770 545 L 778 540 Z M 500 527 L 499 534 L 512 543 L 513 530 Z M 501 527 L 515 533 L 512 542 L 499 530 Z M 860 523 L 857 530 L 900 568 L 905 544 L 899 531 L 882 520 Z M 860 523 L 881 520 L 901 534 L 904 559 L 900 567 L 858 528 Z M 83 522 L 80 528 L 123 566 L 128 543 L 117 525 L 97 518 Z M 84 522 L 109 520 L 123 532 L 128 545 L 123 565 L 81 526 Z M 794 511 L 794 522 L 807 522 L 804 510 L 808 515 L 805 523 L 794 515 L 798 510 Z M 825 483 L 812 483 L 815 492 L 825 494 L 806 543 L 782 581 L 758 611 L 702 662 L 641 697 L 598 713 L 555 722 L 511 723 L 580 721 L 643 697 L 701 664 L 750 621 L 782 582 L 807 543 L 826 495 L 812 484 Z M 792 466 L 791 472 L 803 480 L 804 468 Z M 794 465 L 805 470 L 804 478 L 792 470 Z M 771 427 L 768 433 L 785 443 L 787 432 L 779 426 Z M 772 427 L 785 430 L 787 439 L 782 441 L 770 430 Z M 881 425 L 878 432 L 900 455 L 920 468 L 925 458 L 921 435 L 902 422 Z M 882 425 L 901 422 L 920 434 L 925 446 L 920 467 L 880 431 Z M 58 425 L 55 430 L 95 470 L 99 469 L 104 457 L 101 434 L 82 421 Z M 60 424 L 81 421 L 100 434 L 104 456 L 97 469 L 58 432 Z M 808 412 L 805 419 L 820 428 L 821 414 Z M 810 412 L 821 415 L 820 427 L 809 418 Z M 754 393 L 752 398 L 768 409 L 770 397 L 763 392 Z M 754 395 L 765 393 L 770 406 L 766 407 Z M 718 364 L 716 369 L 733 382 L 733 368 Z M 720 364 L 733 369 L 732 380 L 720 371 Z M 775 349 L 772 355 L 783 365 L 789 365 L 789 354 Z M 776 349 L 788 353 L 787 365 L 774 353 Z M 687 337 L 684 344 L 699 355 L 701 342 Z M 688 337 L 701 343 L 699 354 L 686 343 Z M 644 331 L 643 341 L 655 347 L 656 336 Z M 645 331 L 656 337 L 655 346 L 644 339 Z M 55 324 L 54 328 L 91 365 L 97 364 L 104 346 L 91 323 L 67 318 Z M 58 322 L 80 318 L 97 329 L 103 351 L 96 364 L 55 326 Z M 880 322 L 878 328 L 919 365 L 925 354 L 925 340 L 919 328 L 897 317 Z M 880 322 L 903 318 L 920 330 L 925 342 L 920 364 L 880 328 Z M 716 307 L 727 319 L 733 318 L 734 310 L 729 304 Z M 718 305 L 730 305 L 733 317 L 725 315 Z M 651 296 L 651 302 L 664 311 L 668 306 L 657 295 L 668 305 L 662 309 L 651 299 L 655 295 Z M 857 228 L 855 232 L 891 269 L 896 269 L 901 246 L 895 236 L 876 224 Z M 859 227 L 879 225 L 894 235 L 901 246 L 900 262 L 895 269 L 857 232 Z M 80 224 L 78 230 L 118 267 L 125 256 L 121 231 L 103 220 Z M 82 223 L 102 220 L 118 228 L 125 241 L 124 258 L 119 265 L 79 228 Z M 813 140 L 812 145 L 851 180 L 856 169 L 852 147 L 831 135 Z M 814 140 L 830 135 L 849 145 L 856 157 L 853 177 L 850 179 L 832 163 Z M 129 135 L 125 141 L 138 157 L 167 177 L 172 165 L 170 144 L 149 130 Z M 131 134 L 148 130 L 170 145 L 172 164 L 166 176 L 126 140 Z M 747 54 L 745 60 L 784 96 L 789 85 L 786 64 L 770 52 Z M 749 53 L 770 52 L 786 65 L 789 84 L 785 94 L 746 59 Z M 202 55 L 199 61 L 237 95 L 242 81 L 237 61 L 221 51 Z M 203 55 L 221 51 L 238 63 L 242 81 L 236 93 L 201 61 Z M 346 65 L 282 108 L 247 142 L 207 196 L 184 241 L 165 295 L 154 365 L 157 429 L 167 478 L 189 535 L 237 605 L 271 639 L 332 682 L 393 707 L 396 716 L 404 717 L 408 712 L 461 724 L 499 723 L 475 724 L 425 716 L 373 700 L 332 681 L 270 637 L 236 602 L 192 538 L 167 476 L 157 426 L 155 361 L 164 302 L 180 252 L 207 197 L 248 142 L 299 95 L 363 57 L 404 43 Z M 485 41 L 426 51 L 359 78 L 312 107 L 267 146 L 220 210 L 192 274 L 178 338 L 176 390 L 181 440 L 199 501 L 220 543 L 267 605 L 318 649 L 381 683 L 431 700 L 509 711 L 430 699 L 350 668 L 296 631 L 249 583 L 207 517 L 186 460 L 176 386 L 178 341 L 186 297 L 205 241 L 244 173 L 298 118 L 360 78 L 428 51 L 496 41 L 586 47 L 661 73 L 662 76 L 593 56 L 520 52 L 446 65 L 381 91 L 314 138 L 277 178 L 239 240 L 215 306 L 206 367 L 213 449 L 230 500 L 260 556 L 305 609 L 359 652 L 433 689 L 510 701 L 517 705 L 513 711 L 568 706 L 614 696 L 669 674 L 693 658 L 614 691 L 542 701 L 496 699 L 452 691 L 371 658 L 304 607 L 251 540 L 231 501 L 217 460 L 207 390 L 215 308 L 248 223 L 280 175 L 316 137 L 380 92 L 466 60 L 522 52 L 557 52 L 607 59 L 650 72 L 720 110 L 678 81 L 613 52 L 551 42 Z M 558 703 L 540 708 L 520 705 Z M 467 4 L 391 17 L 319 46 L 245 97 L 195 150 L 160 205 L 130 277 L 114 356 L 113 413 L 122 472 L 145 540 L 183 605 L 236 663 L 294 705 L 326 723 L 366 738 L 445 755 L 510 756 L 586 743 L 664 712 L 733 665 L 791 601 L 832 526 L 853 452 L 856 358 L 840 290 L 847 384 L 842 435 L 828 484 L 835 470 L 846 410 L 847 324 L 856 360 L 854 440 L 840 504 L 811 569 L 770 627 L 708 683 L 638 724 L 566 747 L 548 747 L 538 739 L 545 745 L 537 751 L 521 749 L 507 754 L 483 746 L 490 736 L 482 741 L 474 737 L 472 749 L 457 740 L 444 741 L 429 749 L 427 745 L 432 741 L 424 736 L 413 742 L 416 747 L 400 746 L 327 722 L 322 714 L 313 714 L 266 686 L 219 647 L 160 568 L 127 488 L 113 411 L 116 345 L 124 302 L 144 239 L 176 176 L 221 122 L 264 82 L 314 49 L 364 26 L 412 12 L 470 4 L 541 6 L 603 20 L 676 54 L 735 98 L 736 105 L 667 60 L 597 33 L 540 24 L 495 24 L 423 37 L 467 27 L 538 24 L 596 33 L 631 44 L 679 67 L 720 95 L 763 137 L 793 177 L 772 141 L 731 94 L 694 65 L 652 40 L 601 19 L 565 10 L 522 4 Z "/>
<path fill="#075523" fill-rule="evenodd" d="M 295 1063 L 301 1079 L 321 1091 L 342 1088 L 353 1079 L 333 1089 L 316 1088 L 302 1078 Z M 401 1082 L 402 1096 L 409 1108 L 431 1119 L 454 1112 L 462 1103 L 440 1117 L 424 1116 L 407 1104 L 402 1081 L 406 1069 L 416 1059 Z M 522 1055 L 505 1067 L 499 1092 L 510 1111 L 535 1119 L 549 1114 L 560 1103 L 541 1116 L 526 1117 L 512 1111 L 500 1093 L 504 1070 Z M 614 1028 L 596 1046 L 596 1071 L 612 1088 L 641 1088 L 656 1074 L 639 1087 L 620 1089 L 605 1082 L 597 1071 L 597 1047 Z M 200 1006 L 193 1026 L 204 1050 L 217 1057 L 231 1058 L 252 1046 L 257 1037 L 249 1048 L 236 1055 L 218 1056 L 206 1050 L 194 1029 Z M 690 1027 L 704 1051 L 731 1056 L 752 1041 L 755 1035 L 747 1046 L 727 1055 L 704 1049 L 691 1026 L 700 1001 Z M 777 729 L 750 742 L 723 730 L 736 740 L 757 742 Z M 197 677 L 181 694 L 181 719 L 198 736 L 224 736 L 237 726 L 220 737 L 203 737 L 183 721 L 180 699 Z M 791 619 L 787 642 L 803 664 L 828 668 L 849 653 L 821 668 L 802 662 L 789 646 Z M 120 616 L 114 641 L 127 662 L 139 668 L 154 668 L 172 657 L 151 667 L 128 661 L 115 641 Z M 842 553 L 847 569 L 866 582 L 888 580 L 900 570 L 880 581 L 863 580 L 847 569 Z M 86 519 L 67 536 L 66 560 L 78 576 L 103 581 L 119 573 L 128 559 L 122 569 L 104 579 L 89 579 L 77 573 L 68 561 L 66 544 L 73 528 Z M 926 458 L 919 471 L 899 482 L 874 474 L 887 482 L 904 482 L 922 469 Z M 62 421 L 44 439 L 44 463 L 61 480 L 86 480 L 96 473 L 69 481 L 45 464 L 45 438 Z M 905 317 L 923 332 L 926 356 L 913 372 L 895 378 L 878 372 L 865 354 L 872 368 L 885 377 L 906 377 L 926 357 L 923 331 Z M 65 317 L 45 334 L 43 356 L 58 375 L 82 377 L 101 361 L 90 372 L 77 377 L 59 374 L 45 359 L 45 337 Z M 897 270 L 878 282 L 864 282 L 846 271 L 861 282 L 879 283 Z M 78 224 L 66 242 L 71 267 L 90 279 L 114 273 L 121 266 L 107 276 L 90 278 L 70 264 L 68 239 Z M 812 210 L 810 214 L 827 254 Z M 854 179 L 833 192 L 821 192 L 803 180 L 816 191 L 834 193 Z M 126 136 L 115 150 L 116 174 L 134 189 L 157 186 L 165 180 L 138 189 L 118 176 L 114 159 Z M 210 50 L 191 63 L 186 86 L 200 104 L 218 107 L 226 104 L 207 106 L 193 98 L 188 89 L 191 65 Z "/>
<path fill="#00347B" fill-rule="evenodd" d="M 855 1001 L 942 1021 L 888 998 L 916 1011 Z M 260 980 L 152 991 L 26 1015 L 54 1001 L 4 1024 L 112 998 Z M 245 925 L 276 927 L 285 906 L 326 906 L 330 915 L 325 905 L 286 905 L 275 926 L 247 926 L 247 919 Z M 817 888 L 814 889 L 825 898 L 831 912 L 812 925 L 794 929 L 813 925 L 833 910 Z M 412 886 L 399 889 L 397 925 L 369 925 L 398 926 L 400 887 Z M 866 880 L 867 927 L 899 928 L 868 925 Z M 123 870 L 103 887 L 57 894 L 101 889 Z M 56 849 L 58 867 L 80 867 L 89 862 L 58 866 Z M 400 825 L 400 860 L 421 862 L 432 858 L 438 847 L 433 828 L 438 844 L 430 858 L 400 860 Z M 833 820 L 821 838 L 796 825 L 780 826 L 767 833 L 755 855 L 756 877 L 767 894 L 794 901 L 812 891 L 799 899 L 784 900 L 763 888 L 755 867 L 763 839 L 780 827 L 796 826 L 821 840 Z M 943 797 L 913 797 L 902 816 L 914 798 L 943 801 L 906 872 L 945 801 Z M 826 799 L 830 809 L 830 798 L 856 798 L 863 807 L 857 797 Z M 662 797 L 657 801 L 623 889 Z M 580 797 L 576 800 L 603 800 L 606 865 L 604 799 Z M 136 797 L 135 927 L 166 926 L 167 877 L 211 878 L 211 926 L 215 927 L 209 876 L 166 877 L 165 924 L 135 924 L 135 800 L 165 801 L 168 852 L 209 852 L 213 799 L 239 798 L 242 808 L 242 799 L 212 798 L 210 851 L 167 851 L 166 799 Z M 93 799 L 26 798 L 26 927 L 57 926 L 57 900 L 54 926 L 27 924 L 27 801 L 82 797 L 102 803 L 121 819 L 128 839 L 118 814 Z M 755 805 L 782 796 L 796 796 L 821 805 L 796 796 L 772 798 Z M 700 536 L 700 577 L 688 601 L 662 609 L 629 603 L 616 585 L 615 556 L 614 577 L 620 596 L 642 609 L 673 609 L 686 604 L 700 582 Z M 275 520 L 292 556 L 312 576 L 332 588 L 353 595 L 385 597 L 432 583 L 390 596 L 356 595 L 328 586 L 293 557 Z M 628 380 L 646 373 L 685 378 L 700 398 L 701 448 L 747 450 L 767 460 L 775 477 L 771 516 L 756 529 L 741 532 L 762 526 L 775 506 L 775 474 L 770 463 L 752 450 L 701 448 L 701 401 L 696 387 L 685 377 L 643 373 Z "/>
<path fill="#1C5CAC" fill-rule="evenodd" d="M 522 400 L 514 394 L 504 396 L 399 541 L 374 552 L 347 551 L 362 560 L 385 563 L 406 558 L 424 547 L 521 410 Z M 521 400 L 521 408 L 426 544 L 404 558 L 388 562 L 365 560 L 354 554 L 378 552 L 402 540 L 504 398 L 514 395 Z M 401 307 L 395 310 L 308 438 L 290 480 L 291 514 L 304 543 L 329 567 L 360 579 L 402 577 L 437 559 L 460 533 L 548 405 L 539 394 Z M 401 308 L 537 394 L 547 405 L 440 555 L 403 576 L 366 579 L 336 570 L 309 548 L 293 518 L 290 486 L 304 446 Z M 449 262 L 439 274 L 445 283 L 453 284 L 460 279 L 461 270 Z M 447 263 L 455 264 L 461 271 L 459 280 L 452 284 L 440 276 Z M 608 164 L 572 152 L 549 154 L 526 163 L 496 190 L 471 227 L 470 236 L 482 240 L 514 193 L 541 169 L 575 159 Z M 599 160 L 563 160 L 538 170 L 518 187 L 481 240 L 470 235 L 492 196 L 520 167 L 560 153 L 578 153 Z M 578 133 L 539 136 L 505 154 L 482 179 L 407 291 L 414 301 L 557 390 L 647 260 L 658 227 L 653 190 L 634 160 L 602 139 Z M 576 133 L 615 146 L 639 167 L 655 198 L 657 232 L 651 252 L 563 385 L 555 389 L 415 301 L 407 292 L 499 160 L 532 139 Z "/>
<path fill="#8AC4F8" fill-rule="evenodd" d="M 412 327 L 405 328 L 313 465 L 308 490 L 311 513 L 320 530 L 333 542 L 321 508 L 326 469 L 415 334 Z "/>
<path fill="#317DCE" fill-rule="evenodd" d="M 524 399 L 514 392 L 503 394 L 398 539 L 374 550 L 342 550 L 356 560 L 385 565 L 404 561 L 426 548 L 519 417 Z M 523 400 L 522 410 L 424 548 L 406 559 L 385 564 L 362 561 L 346 551 L 374 551 L 399 540 L 503 396 L 514 393 Z M 401 309 L 305 446 L 292 479 L 293 514 L 307 544 L 331 566 L 359 577 L 403 575 L 440 554 L 546 405 L 537 395 Z M 401 310 L 545 404 L 438 554 L 403 574 L 358 576 L 333 566 L 307 542 L 293 510 L 293 479 L 305 448 Z "/>
<path fill="#D7E0ED" fill-rule="evenodd" d="M 445 258 L 437 265 L 435 277 L 441 286 L 453 289 L 463 283 L 466 270 L 459 260 Z M 448 258 L 458 260 L 465 269 L 463 282 L 454 288 L 441 285 L 435 275 L 437 266 Z M 631 179 L 618 164 L 592 151 L 557 148 L 536 153 L 498 180 L 466 226 L 465 236 L 473 245 L 486 243 L 520 193 L 552 169 L 587 164 L 605 168 L 629 182 Z M 628 177 L 592 164 L 553 168 L 519 193 L 486 242 L 475 245 L 466 237 L 467 226 L 500 179 L 538 153 L 562 148 L 593 152 L 615 163 Z M 574 137 L 542 140 L 507 158 L 484 184 L 412 291 L 557 385 L 643 258 L 653 231 L 650 195 L 635 168 L 614 150 Z M 577 138 L 611 149 L 634 168 L 650 197 L 653 226 L 641 260 L 556 384 L 413 291 L 487 181 L 507 159 L 540 141 Z "/>
<path fill="#A9BDDB" fill-rule="evenodd" d="M 448 259 L 438 266 L 436 275 L 441 284 L 454 287 L 462 282 L 464 269 L 458 261 Z M 448 259 L 459 262 L 464 269 L 463 280 L 454 287 L 443 285 L 436 274 L 439 265 Z M 627 177 L 615 164 L 593 153 L 562 149 L 538 154 L 501 179 L 468 226 L 467 237 L 475 244 L 486 241 L 518 193 L 553 167 L 592 163 Z M 623 173 L 585 162 L 550 168 L 521 189 L 484 242 L 473 243 L 467 236 L 469 225 L 498 183 L 516 166 L 536 155 L 563 149 L 585 151 L 610 161 Z M 575 136 L 535 141 L 502 161 L 411 291 L 419 300 L 556 386 L 638 268 L 654 232 L 652 198 L 637 169 L 611 147 Z M 574 136 L 614 149 L 636 168 L 651 195 L 654 231 L 639 266 L 557 386 L 411 291 L 483 184 L 507 157 L 542 139 Z "/>
<path fill="#4D77B4" fill-rule="evenodd" d="M 448 261 L 442 264 L 438 275 L 443 283 L 454 285 L 461 280 L 462 269 Z M 449 261 L 462 270 L 461 279 L 453 285 L 445 284 L 438 274 Z M 617 169 L 596 156 L 580 152 L 536 157 L 502 181 L 471 225 L 469 236 L 476 242 L 484 240 L 517 191 L 550 166 L 584 160 Z M 607 163 L 575 160 L 541 170 L 515 193 L 482 241 L 476 242 L 469 236 L 470 227 L 495 190 L 526 162 L 549 153 L 572 151 Z M 576 134 L 532 140 L 499 161 L 408 292 L 555 388 L 562 385 L 650 252 L 656 232 L 654 198 L 638 167 L 615 147 Z M 575 134 L 613 146 L 636 165 L 654 198 L 656 231 L 651 249 L 556 388 L 408 293 L 484 179 L 504 157 L 541 137 Z "/>
<path fill="#7B99C7" fill-rule="evenodd" d="M 541 138 L 516 149 L 493 169 L 409 293 L 558 387 L 646 257 L 654 233 L 644 260 L 558 387 L 410 294 L 489 174 L 512 152 Z "/>
</svg>